<svg width="15" height="15" viewBox="0 0 50 50" fill="none" xmlns="http://www.w3.org/2000/svg">
<path d="M28.6644 8.32223C28.1196 8.86716 27.8136 9.60614 27.8136 10.3767C27.8136 11.1472 28.1196 11.8862 28.6644 12.4311L43.0484 26.8151L28.6644 41.199C28.1351 41.7471 27.8422 42.4811 27.8488 43.243C27.8554 44.0049 28.161 44.7338 28.6998 45.2725C29.2386 45.8113 29.9674 46.1169 30.7293 46.1235C31.4912 46.1301 32.2252 45.8372 32.7733 45.3079L49.2117 28.8695C49.7564 28.3246 50.0625 27.5856 50.0625 26.8151C50.0625 26.0445 49.7564 25.3056 49.2117 24.7606L32.7733 8.32223C32.2283 7.77747 31.4894 7.47144 30.7188 7.47144C29.9483 7.47144 29.2093 7.77747 28.6644 8.32223Z" fill="#5D62EC"/>
</svg>
