<svg width="20" height="17" viewBox="0 0 40 40" fill="none" xmlns="http://www.w3.org/2000/svg">
<path d="M38 0H8C6.93913 0 5.92172 0.421427 5.17157 1.17157C4.42143 1.92172 4 2.93913 4 4V10H0V14H4V18H0V22H4V26H0V30H4V36C4 37.0609 4.42143 38.0783 5.17157 38.8284C5.92172 39.5786 6.93913 40 8 40H38C38.5304 40 39.0391 39.7893 39.4142 39.4142C39.7893 39.0391 40 38.5304 40 38V2C40 1.46957 39.7893 0.960859 39.4142 0.585786C39.0391 0.210714 38.5304 0 38 0ZM22 5.998C25.296 5.998 28 8.7 28 11.998C27.9942 13.5877 27.3603 15.1107 26.2364 16.2349C25.1125 17.3592 23.5897 17.9937 22 18C18.706 18 16 15.294 16 11.998C16 8.7 18.706 5.998 22 5.998ZM34 32H10V30.5C10 26.062 15.41 21.5 22 21.5C28.59 21.5 34 26.062 34 30.5V32Z" fill="#5E6973"/>
</svg>
