<svg width="25" height="20" viewBox="0 0 36 30" fill="none" xmlns="http://www.w3.org/2000/svg">
<path fill-rule="evenodd" clip-rule="evenodd" d="M0.02 2.67603C0.02 2.14559 0.230714 1.63688 0.605786 1.26181C0.980859 0.886739 1.48957 0.676025 2.02 0.676025H34C34.5304 0.676025 35.0391 0.886739 35.4142 1.26181C35.7893 1.63688 36 2.14559 36 2.67603V25.324C36 26.3849 35.5786 27.4023 34.8284 28.1525C34.0783 28.9026 33.0609 29.324 32 29.324H4C2.93913 29.324 1.92172 28.9026 1.17157 28.1525C0.421427 27.4023 0 26.3849 0 25.324V3.32403C0 3.22803 0.00599998 3.13603 0.02 3.04403V2.67603ZM4 7.12403V25.324H32V7.12403L22.242 16.882C21.1168 18.0069 19.591 18.6387 18 18.6387C16.409 18.6387 14.8832 18.0069 13.758 16.882L4 7.12003V7.12403ZM7.144 4.61203H28.856L19.416 14.052C19.2303 14.238 19.0097 14.3855 18.7669 14.4861C18.5241 14.5868 18.2638 14.6386 18.001 14.6386C17.7382 14.6386 17.4779 14.5868 17.2351 14.4861C16.9923 14.3855 16.7717 14.238 16.586 14.052L7.144 4.61203Z" fill="#5E6973"/>
</svg>
