<svg width="24" height="20" viewBox="0 0 24 38" fill="none" xmlns="http://www.w3.org/2000/svg">
<path d="M21.3333 0.333252H2.66667C1.95942 0.333252 1.28115 0.614203 0.781049 1.1143C0.280952 1.6144 0 2.29267 0 2.99992V34.9999C0 35.7072 0.280952 36.3854 0.781049 36.8855C1.28115 37.3856 1.95942 37.6666 2.66667 37.6666H21.3333C22.0406 37.6666 22.7189 37.3856 23.219 36.8855C23.719 36.3854 24 35.7072 24 34.9999V2.99992C24 2.29267 23.719 1.6144 23.219 1.1143C22.7189 0.614203 22.0406 0.333252 21.3333 0.333252ZM13.3333 34.9999H10.6667V32.3333H13.3333V34.9999ZM2.66667 29.6666V2.99992H21.3333V29.6666H2.66667Z" fill="#5E6973"/>
</svg>
